<svg xmlns="http://www.w3.org/2000/svg" viewBox="0 0 512 512">
  <defs>
    <linearGradient id="aavcGrad" x1="0%" y1="0%" x2="100%" y2="100%">
      <stop offset="0%" stop-color="#1e3c72" />
      <stop offset="50%" stop-color="#2a5298" />
      <stop offset="100%" stop-color="#0d6efd" />
    </linearGradient>
    <filter id="shadow" x="-10%" y="-10%" width="120%" height="120%">
      <feDropShadow dx="0" dy="6" stdDeviation="8" flood-color="#000" flood-opacity="0.25"/>
    </filter>
  </defs>
  
  <!-- Shield / Rounded Emblem -->
  <path d="M256 32 C140 32 64 64 64 160 C64 300 160 432 256 480 C352 432 448 300 448 160 C448 64 372 32 256 32 Z" fill="url(#aavcGrad)" filter="url(#shadow)" />
  
  <!-- Inner ring accent -->
  <path d="M256 56 C155 56 88 84 88 164 C88 286 172 404 256 448 C340 404 424 286 424 164 C424 84 357 56 256 56 Z" fill="none" stroke="#ffffff" stroke-opacity="0.3" stroke-width="6" />

  <!-- Stylized A & Medical Cross/Badge inside -->
  <path d="M256 120 L160 340 L200 340 L220 290 L292 290 L312 340 L352 340 Z M235 250 L256 195 L277 250 Z" fill="#ffffff" />
  
  <!-- Small medical cross/star above the A -->
  <path d="M256 85 L263 100 L278 107 L263 114 L256 129 L249 114 L234 107 L249 100 Z" fill="#48ebfa" />
</svg>
